<?xml version="1.0" encoding="UTF-8"?>
<svg id="Layer_1" xmlns="http://www.w3.org/2000/svg" viewBox="0 0 416 427.09">
    <defs>
        <style>.cls-1{fill:none;}.cls-1,.cls-2{stroke:#000;stroke-miterlimit:10;}.cls-3{font-family:MyriadPro-Regular,
            'Myriad Pro';font-size:24px;}.cls-2{fill:#fff;}</style>
    </defs>
    <g id="_T-O_">
        <path class="cls-1" d="M134,93.28h70" />
    </g>
    <g id="_T-O_-2">
        <path class="cls-1" d="M314.24,282.17l37-64.09" />
    </g>
    <g id="_T-O_-3">
        <path class="cls-1" d="M60,93.28h74" />
    </g>
    <g id="_T-O_-4">
        <path class="cls-1" d="M134.5,92.78V22.78" />
    </g>
    <g id="_T-O_-5">
        <path class="cls-1" d="M204,93.28h74" />
    </g>
    <g id="_T-O_-6">
        <path class="cls-1" d="M280,93.28h70" />
    </g>
    <g id="_T-O_-7">
        <path class="cls-1" d="M277.5,91.78V21.78" />
    </g>
    <g id="_T-O_-8">
        <path class="cls-1" d="M135,343.28h70" />
    </g>
    <g id="_T-O_-9">
        <path class="cls-1" d="M205,343.28h74" />
    </g>
    <g id="_T-O_-10">
        <path class="cls-1" d="M63.24,217.79l35-60.62" />
    </g>
    <g id="_T-O_-11">
        <path class="cls-1" d="M98.24,157.17l37-64.09" />
    </g>
    <g id="_T-O_-12">
        <path class="cls-1" d="M62.24,218.08l35,60.62" />
    </g>
    <g id="_T-O_-13">
        <path class="cls-1" d="M97.24,278.7l37,64.09" />
    </g>
    <g id="_T-O_-14">
        <path class="cls-1" d="M279.24,94.08l35,60.62" />
    </g>
    <g id="_T-O_-15">
        <path class="cls-1" d="M314.24,154.7l37,64.09" />
    </g>
    <g id="_T-O_-16">
        <path class="cls-1" d="M279.24,342.79l35-60.62" />
    </g>
    <rect class="cls-2" x="124.5" y="84.28" width="18" height="18" />
    <rect class="cls-2" x="51.5" y="84.28" width="18" height="18" />
    <rect class="cls-2" x="125.5" y="4.28" width="18" height="18" />
    <rect class="cls-2" x="90.5" y="144.28" width="18" height="18" />
    <rect class="cls-2" x="269.5" y="84.28" width="18" height="18" />
    <rect class="cls-2" x="194.5" y="84.28" width="18" height="18" />
    <rect class="cls-2" x="350.5" y="84.28" width="18" height="18" />
    <rect class="cls-2" x="268.5" y="3.28" width="18" height="18" />
    <rect class="cls-2" x="308.5" y="152.28" width="18" height="18" />
    <rect class="cls-2" x="54.5" y="209.28" width="18" height="18" />
    <rect class="cls-2" x="86.5" y="267.28" width="18" height="18" />
    <rect class="cls-2" x="125.5" y="334.28" width="18" height="18" />
    <rect class="cls-2" x="268.5" y="333.28" width="18" height="18" />
    <rect class="cls-2" x="342.5" y="210.28" width="18" height="18" />
    <rect class="cls-2" x="308.5" y="268.28" width="18" height="18" />
    <rect class="cls-2" x="196.5" y="334.28" width="18" height="18" />
    <text class="cls-3" transform="translate(127.53 101.55)">
        <tspan x="0" y="0">T</tspan>
    </text>
    <text class="cls-3" transform="translate(52.22 101.09)">
        <tspan x="0" y="0">O</tspan>
    </text>
    <text class="cls-3" transform="translate(194.91 101.09)">
        <tspan x="0" y="0">O</tspan>
    </text>
    <rect class="cls-1" x="194.5" y="84.28" width="18" height="18" />
    <text class="cls-3" transform="translate(125.91 21.09)">
        <tspan x="0" y="0">O</tspan>
    </text>
    <text class="cls-3" transform="translate(90.91 161.09)">
        <tspan x="0" y="0">O</tspan>
    </text>
    <text class="cls-3" transform="translate(272.53 101.55)">
        <tspan x="0" y="0">T</tspan>
    </text>
    <text class="cls-3" transform="translate(195.22 101.09)">
        <tspan x="0" y="0">O</tspan>
    </text>
    <text class="cls-3" transform="translate(350.91 101.09)">
        <tspan x="0" y="0">O</tspan>
    </text>
    <text class="cls-3" transform="translate(268.91 20.09)">
        <tspan x="0" y="0">O</tspan>
    </text>
    <text class="cls-3" transform="translate(308.91 169.09)">
        <tspan x="0" y="0">O</tspan>
    </text>
    <text class="cls-3" transform="translate(57.53 226.55)">
        <tspan x="0" y="0">T</tspan>
    </text>
    <text class="cls-3" transform="translate(86.91 284.09)">
        <tspan x="0" y="0">O</tspan>
    </text>
    <rect class="cls-1" x="86.5" y="267.28" width="18" height="18" />
    <text class="cls-3" transform="translate(87.22 284.09)">
        <tspan x="0" y="0">O</tspan>
    </text>
    <text class="cls-3" transform="translate(128.53 351.55)">
        <tspan x="0" y="0">T</tspan>
    </text>
    <text class="cls-3" transform="translate(271.53 350.55)">
        <tspan x="0" y="0">T</tspan>
    </text>
    <text class="cls-3" transform="translate(345.53 227.55)">
        <tspan x="0" y="0">T</tspan>
    </text>
    <text class="cls-3" transform="translate(308.91 285.09)">
        <tspan x="0" y="0">O</tspan>
    </text>
    <text class="cls-3" transform="translate(196.91 351.09)">
        <tspan x="0" y="0">O</tspan>
    </text>
    <g id="_T-O_-17">
        <path class="cls-1" d="M9.98,272.65l52.33-52.33" />
    </g>
    <g id="_T-O_-18">
        <path class="cls-1" d="M63.02,218.91L13.52,169.41" />
    </g>
    <rect class="cls-2" x=".5" y="263.28" width="18" height="18" />
    <rect class="cls-2" x="4.5" y="160.28" width="18" height="18" />
    <text class="cls-3" transform="translate(1.22 280.09)">
        <tspan x="0" y="0">O</tspan>
    </text>
    <g id="_T-O_-19">
        <path class="cls-1" d="M353.69,218.32l52.33,52.33" />
    </g>
    <g id="_T-O_-20">
        <path class="cls-1" d="M402.48,167.41l-49.5,49.5" />
    </g>
    <rect class="cls-2" x="397.5" y="261.28" width="18" height="18"
        transform="translate(813 540.56) rotate(-180)" />
    <rect class="cls-2" x="393.5" y="158.28" width="18" height="18"
        transform="translate(805 334.56) rotate(-180)" />
    <text class="cls-3" transform="translate(414.78 278.09) rotate(-180) scale(1 -1)">
        <tspan x="0" y="0">O</tspan>
    </text>
    <text class="cls-3" transform="translate(411.09 175.09) rotate(-180) scale(1 -1)">
        <tspan x="0" y="0">O</tspan>
    </text>
    <text class="cls-3" transform="translate(4.91 177.09)">
        <tspan x="0" y="0">O</tspan>
    </text>
    <g id="_T-O_-21">
        <path class="cls-1" d="M60,343.28h74" />
    </g>
    <g id="_T-O_-22">
        <path class="cls-1" d="M279,343.28h70" />
    </g>
    <rect class="cls-2" x="51.5" y="334.28" width="18" height="18" />
    <rect class="cls-2" x="349.5" y="334.28" width="18" height="18" />
    <text class="cls-3" transform="translate(52.22 351.09)">
        <tspan x="0" y="0">O</tspan>
    </text>
    <text class="cls-3" transform="translate(349.91 351.09)">
        <tspan x="0" y="0">O</tspan>
    </text>
    <g id="_T-O_-23">
        <path class="cls-1" d="M135.5,413.78v-70" />
    </g>
    <g id="_T-O_-24">
        <path class="cls-1" d="M279.5,412.78v-70" />
    </g>
    <rect class="cls-2" x="126.5" y="404.28" width="18" height="18" />
    <rect class="cls-2" x="271.5" y="403.28" width="18" height="18" />
    <text class="cls-3" transform="translate(126.91 421.09)">
        <tspan x="0" y="0">O</tspan>
    </text>
    <text class="cls-3" transform="translate(271.91 420.09)">
        <tspan x="0" y="0">O</tspan>
    </text>
</svg>